<?xml version="1.0" encoding="UTF-8"?>
<svg version="1.1" xmlns="http://www.w3.org/2000/svg" width="225" height="225">
<path d="M0 0 C1.94147248 1.77449089 3.73951665 3.61792071 5.52294922 5.55078125 C6.15007812 6.19273438 6.77720703 6.8346875 7.42333984 7.49609375 C11.96044922 12.22616634 11.96044922 12.22616634 11.96044922 14.55078125 C12.95044922 14.88078125 13.94044922 15.21078125 14.96044922 15.55078125 C17.13039673 18.28330775 17.92548198 20.36895158 18.58544922 23.80078125 C17.19216467 32.16048853 10.13156 37.4027458 4.14233398 42.87768555 C-3.27942218 49.73678907 -10.34516728 56.89366574 -17.3611927 64.16404152 C-21.66477433 68.61154922 -26.00600635 73.02243783 -30.33879948 77.44145679 C-34.10199234 81.28369174 -37.852455 85.13696059 -41.57836914 89.01538086 C-72.85016446 121.52916694 -72.85016446 121.52916694 -90.62995911 125.90324402 C-95.24644953 127.14384817 -99.653127 129.00416023 -104.10205078 130.73828125 C-112.07895721 133.73488458 -112.07895721 133.73488458 -116.03564453 132.9765625 C-118.03955078 131.55078125 -118.03955078 131.55078125 -118.73681641 129.71557617 C-119.08727544 127.20951142 -118.73839866 125.85931944 -117.88720703 123.48828125 C-117.6093335 122.70098633 -117.33145996 121.91369141 -117.04516602 121.10253906 C-116.73393799 120.26045898 -116.42270996 119.41837891 -116.10205078 118.55078125 C-115.78502197 117.67518555 -115.46799316 116.79958984 -115.14135742 115.89746094 C-114.12255724 113.10937512 -113.08330264 110.32961368 -112.03955078 107.55078125 C-111.70149414 106.63876953 -111.3634375 105.72675781 -111.01513672 104.78710938 C-110.01974236 102.1180346 -109.00292159 99.45827515 -107.97705078 96.80078125 C-107.5218103 95.58841797 -107.5218103 95.58841797 -107.05737305 94.3515625 C-104.88321155 88.85123706 -102.17143155 83.84988201 -98.03955078 79.55078125 C-97.37955078 79.55078125 -96.71955078 79.55078125 -96.03955078 79.55078125 C-96.03955078 78.89078125 -96.03955078 78.23078125 -96.03955078 77.55078125 C-94.38569845 76.20158593 -92.71784879 74.86944397 -91.03955078 73.55078125 C-90.37955078 72.56078125 -89.71955078 71.57078125 -89.03955078 70.55078125 C-88.37955078 70.55078125 -87.71955078 70.55078125 -87.03955078 70.55078125 C-86.54455078 69.06578125 -86.54455078 69.06578125 -86.03955078 67.55078125 C-85.37955078 67.55078125 -84.71955078 67.55078125 -84.03955078 67.55078125 C-83.54455078 66.06578125 -83.54455078 66.06578125 -83.03955078 64.55078125 C-82.37955078 64.55078125 -81.71955078 64.55078125 -81.03955078 64.55078125 C-80.37955078 63.23078125 -79.71955078 61.91078125 -79.03955078 60.55078125 C-78.37955078 60.55078125 -77.71955078 60.55078125 -77.03955078 60.55078125 C-77.03955078 59.89078125 -77.03955078 59.23078125 -77.03955078 58.55078125 C-76.37955078 58.55078125 -75.71955078 58.55078125 -75.03955078 58.55078125 C-75.03955078 57.89078125 -75.03955078 57.23078125 -75.03955078 56.55078125 C-74.37955078 56.55078125 -73.71955078 56.55078125 -73.03955078 56.55078125 C-73.03955078 55.89078125 -73.03955078 55.23078125 -73.03955078 54.55078125 C-71.35986328 52.9296875 -71.35986328 52.9296875 -69.16455078 51.11328125 C-66.57761357 48.96677241 -64.92770704 47.38301563 -63.03955078 44.55078125 C-62.37955078 44.55078125 -61.71955078 44.55078125 -61.03955078 44.55078125 C-60.70955078 43.56078125 -60.37955078 42.57078125 -60.03955078 41.55078125 C-57.29102457 38.50511707 -54.86577822 36.10961465 -51.03955078 34.55078125 C-51.03955078 33.89078125 -51.03955078 33.23078125 -51.03955078 32.55078125 C-49.67626953 31.2109375 -49.67626953 31.2109375 -47.72705078 29.61328125 C-40.82968181 23.74318 -34.33030779 17.34201182 -28.47705078 10.42578125 C-20.79855007 1.46753042 -11.87049467 -8.43467277 0 0 Z M-28.16455078 20.55078125 C-28.78330078 21.21078125 -29.40205078 21.87078125 -30.03955078 22.55078125 C-29.5601001 23.02499512 -29.08064941 23.49920898 -28.58666992 23.98779297 C-26.42253241 26.1311846 -24.26225431 28.27842515 -22.10205078 30.42578125 C-21.34730469 31.17214844 -20.59255859 31.91851562 -19.81494141 32.6875 C-18.73696289 33.76064453 -18.73696289 33.76064453 -17.63720703 34.85546875 C-16.97213135 35.51530762 -16.30705566 36.17514648 -15.62182617 36.85498047 C-14.03955078 38.55078125 -14.03955078 38.55078125 -13.03955078 40.55078125 C-12.37955078 40.55078125 -11.71955078 40.55078125 -11.03955078 40.55078125 C-11.03955078 41.21078125 -11.03955078 41.87078125 -11.03955078 42.55078125 C-9.71955078 43.21078125 -8.39955078 43.87078125 -7.03955078 44.55078125 C-6.04955078 43.23078125 -5.05955078 41.91078125 -4.03955078 40.55078125 C-5.52184529 37.11472944 -7.46906818 34.86376534 -10.10205078 32.22265625 C-10.89869141 31.4234375 -11.69533203 30.62421875 -12.51611328 29.80078125 C-13.34884766 28.97578125 -14.18158203 28.15078125 -15.03955078 27.30078125 C-15.87228516 26.4603125 -16.70501953 25.61984375 -17.56298828 24.75390625 C-18.35962891 23.95984375 -19.15626953 23.16578125 -19.97705078 22.34765625 C-20.70794922 21.61901367 -21.43884766 20.89037109 -22.19189453 20.13964844 C-24.95570116 17.76295003 -25.52036655 18.06213727 -28.16455078 20.55078125 Z " fill="#0B0704" transform="translate(163.03955078125,47.44921875)"/>
<path d="M0 0 C2.96695379 1.42953228 5.27796966 2.93820393 7.75 5.125 C8.36359375 5.66382812 8.9771875 6.20265625 9.609375 6.7578125 C10.29773438 7.37269531 10.29773438 7.37269531 11 8 C9.70280076 10.85779017 8.3363174 12.91008536 6.11083984 15.11621094 C5.5303891 15.69651062 4.94993835 16.2768103 4.35189819 16.87469482 C3.72788116 17.48838928 3.10386414 18.10208374 2.4609375 18.734375 C1.82008209 19.37240051 1.17922668 20.01042603 0.51895142 20.66778564 C-1.52437821 22.69994069 -3.57455982 24.72502218 -5.625 26.75 C-7.0134786 28.1284453 -8.4015049 29.50734636 -9.7890625 30.88671875 C-13.18748697 34.26311894 -16.59207254 37.63319288 -20 41 C-19.67 41.99 -19.34 42.98 -19 44 C-14.34447261 41.54831768 -11.03306549 38.29253732 -7.38671875 34.58203125 C-6.46509697 33.65616463 -6.46509697 33.65616463 -5.52485657 32.71159363 C-3.57430348 30.7498955 -1.63084194 28.78133944 0.3125 26.8125 C1.63820895 25.47675393 2.96437597 24.14146234 4.29101562 22.80664062 C7.53267189 19.54299931 10.76798847 16.27319172 14 13 C14.99 13.33 15.98 13.66 17 14 C17 14.66 17 15.32 17 16 C18.485 16.495 18.485 16.495 20 17 C22.25 18.8125 22.25 18.8125 24 21 C23.87519544 25.36512108 20.48190284 27.91712521 17.56225586 30.77832031 C16.71347618 31.62775711 16.71347618 31.62775711 15.84754944 32.49435425 C13.97700443 34.36281064 12.09606074 36.22041899 10.21484375 38.078125 C8.91524591 39.37212717 7.6163092 40.66679364 6.31800842 41.96209717 C2.90016715 45.36848751 -0.52658763 48.7657726 -3.95526123 52.16125488 C-7.45280394 55.62810229 -10.94186298 59.10346437 -14.43164062 62.578125 C-21.27947274 69.39378855 -28.13674927 76.19986543 -35 83 C-36.1055189 82.06409496 -37.20935453 81.12620142 -38.3125 80.1875 C-38.92738281 79.66542969 -39.54226562 79.14335937 -40.17578125 78.60546875 C-41.85424679 77.12827531 -43.43882034 75.59960869 -45 74 C-43.4976228 70.45175777 -41.44756985 68.25283734 -38.68359375 65.59375 C-37.83732422 64.76746094 -36.99105469 63.94117188 -36.11914062 63.08984375 C-34.32935802 61.36132828 -32.53768497 59.63476815 -30.74414062 57.91015625 C-29.89916016 57.08386719 -29.05417969 56.25757813 -28.18359375 55.40625 C-27.40556396 54.65666016 -26.62753418 53.90707031 -25.82592773 53.13476562 C-23.99733622 50.99688567 -23.38013519 49.74849025 -23 47 C-27.28633193 48.39430875 -29.72265098 50.36889584 -32.86328125 53.5703125 C-33.74951172 54.46621094 -34.63574219 55.36210937 -35.54882812 56.28515625 C-36.46083984 57.22230469 -37.37285156 58.15945312 -38.3125 59.125 C-39.25255572 60.08011605 -40.19330431 61.03455067 -41.13476562 61.98828125 C-43.43008067 64.31890883 -45.71809646 66.65625196 -48 69 C-51.18086518 67.49053489 -53.29869906 65.92058175 -55.75 63.375 C-56.36359375 62.74335938 -56.9771875 62.11171875 -57.609375 61.4609375 C-58.06828125 60.97882813 -58.5271875 60.49671875 -59 60 C-53.38062338 53.14092885 -47.09685489 46.96990509 -40.8203125 40.72265625 C-39.64039553 39.54460742 -38.46070142 38.36633534 -37.28121948 37.18785095 C-34.19610309 34.10652858 -31.10799411 31.02822284 -28.01922607 27.95056152 C-24.85994267 24.80155966 -21.70353484 21.64967829 -18.546875 18.49804688 C-12.36737473 12.3292289 -6.1847061 6.16359871 0 0 Z " fill="#F8D149" transform="translate(127,74)"/>
<path d="M0 0 C1.94147248 1.77449089 3.73951665 3.61792071 5.52294922 5.55078125 C6.15007812 6.19273438 6.77720703 6.8346875 7.42333984 7.49609375 C11.96044922 12.22616634 11.96044922 12.22616634 11.96044922 14.55078125 C12.95044922 14.88078125 13.94044922 15.21078125 14.96044922 15.55078125 C17.13039673 18.28330775 17.92548198 20.36895158 18.58544922 23.80078125 C16.67820268 35.24426047 2.31258804 45.60237422 -6.49658203 52.46484375 C-7.00576172 52.82320312 -7.51494141 53.1815625 -8.03955078 53.55078125 C-7.70955078 51.57078125 -7.37955078 49.59078125 -7.03955078 47.55078125 C-10.09536053 44.96300917 -10.09536053 44.96300917 -14.03955078 44.55078125 C-14.36955078 45.21078125 -14.69955078 45.87078125 -15.03955078 46.55078125 C-15.69955078 44.90078125 -16.35955078 43.25078125 -17.03955078 41.55078125 C-16.37955078 40.89078125 -15.71955078 40.23078125 -15.03955078 39.55078125 C-15.03955078 38.56078125 -15.03955078 37.57078125 -15.03955078 36.55078125 C-14.37955078 37.87078125 -13.71955078 39.19078125 -13.03955078 40.55078125 C-12.37955078 40.55078125 -11.71955078 40.55078125 -11.03955078 40.55078125 C-11.03955078 41.21078125 -11.03955078 41.87078125 -11.03955078 42.55078125 C-9.71955078 42.55078125 -8.39955078 42.55078125 -7.03955078 42.55078125 C-6.37955078 41.23078125 -5.71955078 39.91078125 -5.03955078 38.55078125 C-11.30955078 32.28078125 -17.57955078 26.01078125 -24.03955078 19.55078125 C-26.01955078 20.21078125 -27.99955078 20.87078125 -30.03955078 21.55078125 C-30.69955078 20.23078125 -31.35955078 18.91078125 -32.03955078 17.55078125 C-32.36955078 18.87078125 -32.69955078 20.19078125 -33.03955078 21.55078125 C-34.68955078 21.55078125 -36.33955078 21.55078125 -38.03955078 21.55078125 C-36.62951742 19.90001049 -35.2182129 18.25031211 -33.80126953 16.60546875 C-32.66941762 15.28539312 -31.5462181 13.95782177 -30.43408203 12.62109375 C-12.34743284 -8.77356492 -12.34743284 -8.77356492 0 0 Z " fill="#352E2C" transform="translate(163.03955078125,47.44921875)"/>
<path d="M0 0 C0.66 0.33 1.32 0.66 2 1 C1.7834375 1.8353125 1.7834375 1.8353125 1.5625 2.6875 C0.97230872 5.11384195 0.476571 7.54906345 0 10 C-0.66 10 -1.32 10 -2 10 C0.44476408 16.16591101 4.75393197 20.16474364 9.4375 24.75 C10.20126953 25.51699219 10.96503906 26.28398437 11.75195312 27.07421875 C16.38348552 31.71970102 16.38348552 31.71970102 22 35 C21.34 35 20.68 35 20 35 C20 35.99 20 36.98 20 38 C20.99 38.495 20.99 38.495 22 39 C22.33 39.66 22.66 40.32 23 41 C12.7491785 45.19847476 2.46377474 49.31216772 -7.9375 53.125 C-8.77055664 53.44412354 -9.60361328 53.76324707 -10.46191406 54.09204102 C-14.02888885 55.37197704 -16.22823889 56.14652422 -20.00390625 55.4296875 C-22 54 -22 54 -22.69677734 52.16455078 C-23.04785137 49.65841368 -22.69889592 48.30867202 -21.84765625 45.9375 C-21.56978271 45.15020508 -21.29190918 44.36291016 -21.00561523 43.55175781 C-20.53877319 42.2886377 -20.53877319 42.2886377 -20.0625 41 C-19.74547119 40.1244043 -19.42844238 39.24880859 -19.10180664 38.34667969 C-18.08300646 35.55859387 -17.04375186 32.77883243 -16 30 C-15.66194336 29.08798828 -15.32388672 28.17597656 -14.97558594 27.23632812 C-13.98019157 24.56725335 -12.96337081 21.9074939 -11.9375 19.25 C-11.48225952 18.03763672 -11.48225952 18.03763672 -11.01782227 16.80078125 C-8.84366076 11.30045581 -6.13188077 6.29910076 -2 2 C-1.34 2 -0.68 2 0 2 C0 1.34 0 0.68 0 0 Z " fill="#232221" transform="translate(67,125)"/>
<path d="M0 0 C0.66 0.33 1.32 0.66 2 1 C2.2475 1.88558594 2.495 2.77117187 2.75 3.68359375 C4.34535448 7.91626862 6.71513473 10.06041205 10 13.0625 C13.61196437 16.38908511 16.57675246 19.15206307 18 24 C16.35 24.66 14.7 25.32 13 26 C12.505 25.01 12.505 25.01 12 24 C9.19980675 25.27533764 7.17250511 26.58523398 5.02319336 28.78149414 C4.4725975 29.33869644 3.92200165 29.89589874 3.35472107 30.46998596 C2.4811068 31.36849525 2.4811068 31.36849525 1.58984375 32.28515625 C0.9811293 32.90144394 0.37241486 33.51773163 -0.25474548 34.1526947 C-2.1955466 36.117891 -4.12976388 38.08937332 -6.0625 40.0625 C-8.61016666 42.6632628 -11.16429626 45.25741664 -13.72265625 47.84765625 C-14.30709 48.44868668 -14.89152374 49.0497171 -15.4936676 49.66896057 C-19.66161359 53.88720453 -19.66161359 53.88720453 -23 55 C-23.66 53.68 -24.32 52.36 -25 51 C-24.06615479 50.0713916 -23.13230957 49.1427832 -22.17016602 48.18603516 C-18.71435806 44.74829329 -15.26183285 41.30727079 -11.81030273 37.86523438 C-10.31445586 36.37442402 -8.81771376 34.88451138 -7.32006836 33.39550781 C-5.17066638 31.25820111 -3.02447815 29.1177132 -0.87890625 26.9765625 C-0.20598038 26.30879791 0.4669455 25.64103333 1.16026306 24.95303345 C1.78083084 24.3325412 2.40139862 23.71204895 3.04077148 23.07275391 C3.58926254 22.52648346 4.1377536 21.98021301 4.7028656 21.41738892 C6.10839393 20.01148884 6.10839393 20.01148884 7 18 C5.515 17.505 5.515 17.505 4 17 C4 16.34 4 15.68 4 15 C3.4225 14.71125 2.845 14.4225 2.25 14.125 C0.16666667 13.08333333 -1.91666667 12.04166667 -4 11 C-21.49 28.49 -38.98 45.98 -57 64 C-58.65 62.68 -60.3 61.36 -62 60 C-60.38405168 57.95880212 -58.7143618 55.95927063 -57 54 C-56.34 54 -55.68 54 -55 54 C-54.67 53.01 -54.34 52.02 -54 51 C-53.34 51 -52.68 51 -52 51 C-51.67 50.01 -51.34 49.02 -51 48 C-50.34 48 -49.68 48 -49 48 C-48.34 46.68 -47.68 45.36 -47 44 C-46.34 44 -45.68 44 -45 44 C-45 43.34 -45 42.68 -45 42 C-44.34 42 -43.68 42 -43 42 C-43 41.34 -43 40.68 -43 40 C-42.34 40 -41.68 40 -41 40 C-41 39.34 -41 38.68 -41 38 C-39.3203125 36.37890625 -39.3203125 36.37890625 -37.125 34.5625 C-34.53806278 32.41599116 -32.88815626 30.83223438 -31 28 C-30.34 28 -29.68 28 -29 28 C-28.505 26.515 -28.505 26.515 -28 25 C-25.25147379 21.95433582 -22.82622743 19.5588334 -19 18 C-19 17.34 -19 16.68 -19 16 C-17.390625 14.4140625 -17.390625 14.4140625 -15.25 12.625 C-12.95547122 10.68596159 -10.81877622 8.80870823 -8.75 6.625 C-6.80848326 4.82216303 -5.62208654 4.26220865 -3 4 C-2.34 4.33 -1.68 4.66 -1 5 C-0.67 3.35 -0.34 1.7 0 0 Z " fill="#2B201E" transform="translate(131,64)"/>
<path d="M0 0 C7.02906272 3.51453136 12.12272054 9.76256979 17.04296875 15.734375 C18.3329691 17.31529183 18.3329691 17.31529183 20.375 18.1875 C20.83931694 20.97340165 21.05873353 22.49781295 20.375 25.1875 C17.99469454 28.18898167 15.27585684 30.69457616 12.375 33.1875 C8.70747995 31.6483199 6.38919427 29.43264548 3.609375 26.6171875 C2.71992188 25.72128906 1.83046875 24.82539062 0.9140625 23.90234375 C-0.00632813 22.96519531 -0.92671875 22.02804688 -1.875 21.0625 C-2.81984856 20.10761363 -3.76515633 19.15318141 -4.7109375 18.19921875 C-7.02018338 15.86640913 -9.32463203 13.52905914 -11.625 11.1875 C-9.31109399 6.3764021 -5.74738332 0.41052738 0 0 Z " fill="#F75077" transform="translate(153.625,49.8125)"/>
<path d="M0 0 C0.33 0 0.66 0 1 0 C1.25 2.1875 1.25 2.1875 1 5 C0.38125 5.680625 -0.2375 6.36125 -0.875 7.0625 C-3.71845725 10.99316149 -3.97961771 14.61186881 -4.60546875 19.35546875 C-5 22 -5 22 -6 24 C-7.66500443 24.34153937 -9.33178677 24.67449498 -11 25 C-11.66 25.66 -12.32 26.32 -13 27 C-13.66 26.67 -14.32 26.34 -15 26 C-15 26.66 -15 27.32 -15 28 C-16.32 28.33 -17.64 28.66 -19 29 C-19 30.32 -19 31.64 -19 33 C-20.98 33.495 -20.98 33.495 -23 34 C-23 35.32 -23 36.64 -23 38 C-23.78375 38.2475 -24.5675 38.495 -25.375 38.75 C-28.32317108 40.15389099 -28.9024777 41.00675737 -30 44 C-32.875 43.6875 -32.875 43.6875 -36 43 C-38 40 -38 40 -38 36 C-36.71182656 34.62298702 -35.37195574 33.29355827 -34 32 C-33.54874756 31.22825439 -33.09749512 30.45650879 -32.63256836 29.66137695 C-29.69254349 24.86861321 -25.51730856 21.14821566 -21.5625 17.1875 C-20.70333984 16.30384766 -19.84417969 15.42019531 -18.95898438 14.50976562 C-18.12818359 13.67509766 -17.29738281 12.84042969 -16.44140625 11.98046875 C-15.68545166 11.21629639 -14.92949707 10.45212402 -14.15063477 9.66479492 C-12 8 -12 8 -8 8 C-7.67 7.34 -7.34 6.68 -7 6 C-6.01 6 -5.02 6 -4 6 C-3.34 4.68 -2.68 3.36 -2 2 C-1.34 2 -0.68 2 0 2 C0 1.34 0 0.68 0 0 Z " fill="#F9D345" transform="translate(110,95)"/>
<path d="M0 0 C3.43605181 1.48229451 5.68701591 3.4295174 8.328125 6.0625 C9.12734375 6.85914063 9.9265625 7.65578125 10.75 8.4765625 C11.575 9.30929688 12.4 10.14203125 13.25 11 C14.09046875 11.83273438 14.9309375 12.66546875 15.796875 13.5234375 C16.5909375 14.32007813 17.385 15.11671875 18.203125 15.9375 C18.93176758 16.66839844 19.66041016 17.39929688 20.41113281 18.15234375 C22 20 22 20 22 22 C19.62386423 22.95045431 17.24726305 23.89927565 14.8671875 24.83984375 C13.00556113 25.59311763 11.15536563 26.37552986 9.3203125 27.19140625 C0.98904076 30.82525882 0.98904076 30.82525882 -4 29 C-5.875 27.5625 -5.875 27.5625 -7 26 C-7 25.34 -7 24.68 -7 24 C-7.66 24 -8.32 24 -9 24 C-6.74737425 15.72205822 -3.84190274 7.68380548 0 0 Z " fill="#FBF0C0" transform="translate(64,139)"/>
<path d="M0 0 C0.66 0.33 1.32 0.66 2 1 C2 1.66 2 2.32 2 3 C2.99 3.33 3.98 3.66 5 4 C2.86561276 11.94265385 -1.67249038 16.32671572 -7.48046875 21.96875 C-8.40845779 22.88966431 -9.33644684 23.81057861 -10.29255676 24.75939941 C-12.74264005 27.19052331 -15.20736489 29.60624466 -17.67559814 32.0189209 C-20.19846488 34.4903546 -22.70698353 36.97626109 -25.21679688 39.4609375 C-30.13069191 44.32144075 -35.06022875 49.1658009 -40 54 C-40.66 53.67 -41.32 53.34 -42 53 C-42 52.34 -42 51.68 -42 51 C-43.98 51.495 -43.98 51.495 -46 52 C-41.34191883 46.37034026 -36.31814988 41.28929639 -31.06640625 36.21484375 C-29.34871752 34.53411411 -27.63194689 32.85244575 -25.91601562 31.16992188 C-23.2291642 28.53882552 -20.53762931 25.91352271 -17.83032227 23.3034668 C-15.20535971 20.76906107 -12.60310618 18.21312899 -10.00390625 15.65234375 C-9.18636368 14.87406723 -8.36882111 14.09579071 -7.52650452 13.29393005 C-5.48898091 11.26672849 -3.62399083 9.37146083 -2 7 C-1.77738889 3.56339419 -1.77738889 3.56339419 -3 1 C-2.01 0.67 -1.02 0.34 0 0 Z " fill="#150901" transform="translate(152,91)"/>
<path d="M0 0 C0.99 0.66 1.98 1.32 3 2 C3 3.32 3 4.64 3 6 C3.99 6.33 4.98 6.66 6 7 C6 7.66 6 8.32 6 9 C5.34 9 4.68 9 4 9 C4 9.66 4 10.32 4 11 C2.54462432 11.83848804 1.08559627 12.67063934 -0.375 13.5 C-1.18710938 13.9640625 -1.99921875 14.428125 -2.8359375 14.90625 C-5 16 -5 16 -7 16 C-7.33 17.65 -7.66 19.3 -8 21 C-8.66 21 -9.32 21 -10 21 C-9.938125 21.763125 -9.87625 22.52625 -9.8125 23.3125 C-10 26 -10 26 -11.25 27.8125 C-13 29 -13 29 -17 29 C-17 29.99 -17 30.98 -17 32 C-22.75 33.125 -22.75 33.125 -25 32 C-26.50111381 28.09541746 -25.53491575 25.56609942 -24.0234375 21.8359375 C-21.98439452 18.1781123 -18.78437196 17.26145732 -15 16 C-15 15.34 -15 14.68 -15 14 C-14.01 13.67 -13.02 13.34 -12 13 C-10.47987963 10.74572728 -10.47987963 10.74572728 -9 8 C-5.71772429 2.42013129 -5.71772429 2.42013129 -2.4375 0.5 C-1.633125 0.335 -0.82875 0.17 0 0 Z " fill="#FAD041" transform="translate(112,119)"/>
<path d="M0 0 C0.59425781 0.12761719 1.18851563 0.25523438 1.80078125 0.38671875 C2.13078125 2.03671875 2.46078125 3.68671875 2.80078125 5.38671875 C2.14078125 5.38671875 1.48078125 5.38671875 0.80078125 5.38671875 C0.69765625 6.14984375 0.59453125 6.91296875 0.48828125 7.69921875 C-0.27890453 10.6982177 -0.9422486 11.38052306 -3.19921875 13.38671875 C-4.18921875 14.71703125 -4.18921875 14.71703125 -5.19921875 16.07421875 C-5.85921875 16.83734375 -6.51921875 17.60046875 -7.19921875 18.38671875 C-8.18921875 18.38671875 -9.17921875 18.38671875 -10.19921875 18.38671875 C-10.19921875 19.04671875 -10.19921875 19.70671875 -10.19921875 20.38671875 C-10.85921875 20.38671875 -11.51921875 20.38671875 -12.19921875 20.38671875 C-12.85921875 21.70671875 -13.51921875 23.02671875 -14.19921875 24.38671875 C-15.51921875 24.38671875 -16.83921875 24.38671875 -18.19921875 24.38671875 C-17.53921875 22.73671875 -16.87921875 21.08671875 -16.19921875 19.38671875 C-16.79734375 19.73734375 -17.39546875 20.08796875 -18.01171875 20.44921875 C-20.19921875 21.38671875 -20.19921875 21.38671875 -23.19921875 20.38671875 C-21.44921875 16.51171875 -21.44921875 16.51171875 -19.19921875 15.38671875 C-19.19921875 14.06671875 -19.19921875 12.74671875 -19.19921875 11.38671875 C-17.63440413 9.25666691 -16.1652273 7.49729624 -14.32421875 5.63671875 C-13.83332764 5.13809326 -13.34243652 4.63946777 -12.83666992 4.12573242 C-8.63433955 0.18188272 -5.61030527 -0.6718406 0 0 Z " fill="#FAD13C" transform="translate(143.19921875,92.61328125)"/>
<path d="M0 0 C0.99 0.33 1.98 0.66 3 1 C-9.21 13.21 -21.42 25.42 -34 38 C-35.65 36.68 -37.3 35.36 -39 34 C-37.38405168 31.95880212 -35.7143618 29.95927063 -34 28 C-33.34 28 -32.68 28 -32 28 C-31.67 27.01 -31.34 26.02 -31 25 C-30.34 25 -29.68 25 -29 25 C-28.67 24.01 -28.34 23.02 -28 22 C-27.34 22 -26.68 22 -26 22 C-25.34 20.68 -24.68 19.36 -24 18 C-23.34 18 -22.68 18 -22 18 C-22 17.34 -22 16.68 -22 16 C-21.34 16 -20.68 16 -20 16 C-20 15.34 -20 14.68 -20 14 C-19.34 14 -18.68 14 -18 14 C-18 13.34 -18 12.68 -18 12 C-14.19829755 8.00019395 -10.29063919 4.71588298 -5 3 C-4.13375 2.443125 -3.2675 1.88625 -2.375 1.3125 C-1.59125 0.879375 -0.8075 0.44625 0 0 Z " fill="#1F1001" transform="translate(108,90)"/>
<path d="M0 0 C0.66 0.33 1.32 0.66 2 1 C1.67 1.66 1.34 2.32 1 3 C2.423125 3.12375 2.423125 3.12375 3.875 3.25 C7 4 7 4 8.375 6.0625 C8.58125 6.701875 8.7875 7.34125 9 8 C7.35 8.66 5.7 9.32 4 10 C3.505 9.01 3.505 9.01 3 8 C0.19980675 9.27533764 -1.82749489 10.58523398 -3.97680664 12.78149414 C-4.5274025 13.33869644 -5.07799835 13.89589874 -5.64527893 14.46998596 C-6.5188932 15.36849525 -6.5188932 15.36849525 -7.41015625 16.28515625 C-8.0188707 16.90144394 -8.62758514 17.51773163 -9.25474548 18.1526947 C-11.1955466 20.117891 -13.12976388 22.08937332 -15.0625 24.0625 C-17.61016666 26.6632628 -20.16429626 29.25741664 -22.72265625 31.84765625 C-23.59930687 32.74920189 -23.59930687 32.74920189 -24.4936676 33.66896057 C-28.66161359 37.88720453 -28.66161359 37.88720453 -32 39 C-32.66 37.68 -33.32 36.36 -34 35 C-33.5887941 34.59101471 -33.1775882 34.18202942 -32.75392151 33.76065063 C-28.48488161 29.51368848 -24.21932953 25.2632466 -19.95581055 21.01074219 C-18.3629583 19.42292701 -16.76921082 17.83600939 -15.17456055 16.25 C-12.88616257 13.97369489 -10.60097521 11.6942097 -8.31640625 9.4140625 C-7.59973282 8.70255035 -6.88305939 7.99103821 -6.14466858 7.25796509 C-5.4840593 6.59743134 -4.82345001 5.93689758 -4.14282227 5.25634766 C-3.55880142 4.67454742 -2.97478058 4.09274719 -2.37306213 3.49331665 C-0.89895878 2.02807111 -0.89895878 2.02807111 0 0 Z " fill="#1B0C01" transform="translate(140,80)"/>
<path d="M0 0 C0.66 0.33 1.32 0.66 2 1 C0.07776117 6.1596937 -1.80186938 9.25572134 -6 13 C-3.57728127 18.63454697 1.11824333 22.52740693 5.375 26.8125 C6.23867187 27.70904297 7.10234375 28.60558594 7.9921875 29.52929688 C8.8275 30.37169922 9.6628125 31.21410156 10.5234375 32.08203125 C11.28575684 32.85780518 12.04807617 33.6335791 12.83349609 34.43286133 C14.86690313 36.27364579 14.86690313 36.27364579 17.27978516 35.74487305 C17.84745605 35.49906494 18.41512695 35.25325684 19 35 C19.33 35.66 19.66 36.32 20 37 C19.67 37.66 19.34 38.32 19 39 C17.68 39 16.36 39 15 39 C15 39.66 15 40.32 15 41 C13.515 41.495 13.515 41.495 12 42 C11.154375 40.989375 10.30875 39.97875 9.4375 38.9375 C3.79405226 32.46619113 -2.40524166 26.51115768 -8.50708008 20.47705078 C-9.67493521 19.32160948 -10.83833521 18.16166479 -12 17 C-11.01 15.68 -10.02 14.36 -9 13 C-9.99 12.67 -10.98 12.34 -12 12 C-8.32167983 7.47384007 -4.58913637 3.60575001 0 0 Z " fill="#170506" transform="translate(149,46)"/>
<path d="M0 0 C0.99 0.33 1.98 0.66 3 1 C-0.63 4.63 -4.26 8.26 -8 12 C-7.505 13.485 -7.505 13.485 -7 15 C-4.98491642 15.73323796 -4.98491642 15.73323796 -3 16 C-3.33 16.66 -3.66 17.32 -4 18 C-4.8971875 18.12375 -4.8971875 18.12375 -5.8125 18.25 C-9.96898651 19.67508109 -11.55942069 24.18933406 -13.5625 27.875 C-14.036875 28.57625 -14.51125 29.2775 -15 30 C-15.99 30 -16.98 30 -18 30 C-18 30.66 -18 31.32 -18 32 C-19.62626404 33.38232443 -21.2925002 34.71937515 -23 36 C-23.66 35.67 -24.32 35.34 -25 35 C-24.07316406 34.10796875 -23.14632812 33.2159375 -22.19140625 32.296875 C-20.98137722 31.11498618 -19.77176335 29.93267222 -18.5625 28.75 C-17.95083984 28.16347656 -17.33917969 27.57695312 -16.70898438 26.97265625 C-16.12568359 26.39902344 -15.54238281 25.82539063 -14.94140625 25.234375 C-14.13231812 24.44885254 -14.13231812 24.44885254 -13.30688477 23.64746094 C-11.82879242 21.78417546 -11.40834789 20.32206478 -11 18 C-15.28633193 19.39430875 -17.72265098 21.36889584 -20.86328125 24.5703125 C-21.74951172 25.46621094 -22.63574219 26.36210937 -23.54882812 27.28515625 C-24.46083984 28.22230469 -25.37285156 29.15945312 -26.3125 30.125 C-27.25255572 31.08011605 -28.19330431 32.03455067 -29.13476562 32.98828125 C-31.43008067 35.31890883 -33.71809646 37.65625196 -36 40 C-39.18086518 38.49053489 -41.29869906 36.92058175 -43.75 34.375 C-44.36359375 33.74335938 -44.9771875 33.11171875 -45.609375 32.4609375 C-46.06828125 31.97882813 -46.5271875 31.49671875 -47 31 C-46.06725891 29.87105124 -45.12859878 28.74699124 -44.1875 27.625 C-43.66542969 26.99851563 -43.14335938 26.37203125 -42.60546875 25.7265625 C-41 24 -41 24 -38 22 C-38.8125 24.4375 -38.8125 24.4375 -40 27 C-40.99 27.33 -41.98 27.66 -43 28 C-42.34 29.98 -41.68 31.96 -41 34 C-38.25038489 34.94607807 -38.25038489 34.94607807 -35 35 C-32.22877725 32.64573501 -32.22877725 32.64573501 -30 30 C-29.34 30 -28.68 30 -28 30 C-28 28.68 -28 27.36 -28 26 C-26.68 25.67 -25.36 25.34 -24 25 C-24 23.68 -24 22.36 -24 21 C-22.68 20.67 -21.36 20.34 -20 20 C-20 19.34 -20 18.68 -20 18 C-16.53785351 15.94835763 -15.40610765 16 -11 16 C-10.67 12.37 -10.34 8.74 -10 5 C-8.68 5 -7.36 5 -6 5 C-5.67 4.34 -5.34 3.68 -5 3 C-2.625 1.3125 -2.625 1.3125 0 0 Z " fill="#E2C35E" transform="translate(115,103)"/>
<path d="M0 0 C0.33 0 0.66 0 1 0 C1.25 2.1875 1.25 2.1875 1 5 C0.38125 5.680625 -0.2375 6.36125 -0.875 7.0625 C-3.71845725 10.99316149 -3.97961771 14.61186881 -4.60546875 19.35546875 C-5 22 -5 22 -6 24 C-7.66500443 24.34153937 -9.33178677 24.67449498 -11 25 C-11.66 25.66 -12.32 26.32 -13 27 C-13.66 26.67 -14.32 26.34 -15 26 C-15.33 26.66 -15.66 27.32 -16 28 C-16.598125 27.67 -17.19625 27.34 -17.8125 27 C-20.05386471 25.79212012 -20.05386471 25.79212012 -23 26 C-22.34 26.33 -21.68 26.66 -21 27 C-21 27.66 -21 28.32 -21 29 C-21.66 29.33 -22.32 29.66 -23 30 C-22.34 30.66 -21.68 31.32 -21 32 C-23.60582371 32.93065133 -24.64198224 33.14917407 -27.25 32.0625 C-28.11625 31.5365625 -28.11625 31.5365625 -29 31 C-28.566875 30.608125 -28.13375 30.21625 -27.6875 29.8125 C-25.86824774 28.00156582 -25.86824774 28.00156582 -24.5625 25.4375 C-22.87463098 22.80442433 -21.91639134 22.00250952 -19 21 C-18.01 21 -17.02 21 -16 21 C-16.0825 20.236875 -16.165 19.47375 -16.25 18.6875 C-16 16 -16 16 -14.125 14.1875 C-12 13 -12 13 -10 13 C-10.33 11.35 -10.66 9.7 -11 8 C-10.01 8 -9.02 8 -8 8 C-7.67 7.34 -7.34 6.68 -7 6 C-6.01 6 -5.02 6 -4 6 C-3.34 4.68 -2.68 3.36 -2 2 C-1.34 2 -0.68 2 0 2 C0 1.34 0 0.68 0 0 Z " fill="#F9D03B" transform="translate(110,95)"/>
<path d="M0 0 C2.85533044 1.42766522 5.05260542 2.99412734 7.375 5.1875 C7.705 6.1775 8.035 7.1675 8.375 8.1875 C7.385 8.1875 6.395 8.1875 5.375 8.1875 C5.375 7.5275 5.375 6.8675 5.375 6.1875 C4.715 6.1875 4.055 6.1875 3.375 6.1875 C3.375 5.5275 3.375 4.8675 3.375 4.1875 C1.065 4.5175 -1.245 4.8475 -3.625 5.1875 C-4.35422424 8.23035387 -4.85063456 11.05485273 -4.625 14.1875 C-2.56663485 17.0638474 0.22979931 18.61489965 3.375 20.1875 C4.04166667 21.52083333 4.70833333 22.85416667 5.375 24.1875 C5.91125 24.72375 6.4475 25.26 7 25.8125 C7.45375 26.26625 7.9075 26.72 8.375 27.1875 C8.375 27.8475 8.375 28.5075 8.375 29.1875 C11.84 28.6925 11.84 28.6925 15.375 28.1875 C16.365 24.7225 16.365 24.7225 17.375 21.1875 C16.385 20.5275 15.395 19.8675 14.375 19.1875 C14.1875 16.0625 14.1875 16.0625 14.375 13.1875 C20.09257925 17.11833573 20.09257925 17.11833573 21.25 21.5 C19.96388075 26.92007399 16.50585926 29.63754283 12.375 33.1875 C8.70747995 31.6483199 6.38919427 29.43264548 3.609375 26.6171875 C2.71992188 25.72128906 1.83046875 24.82539062 0.9140625 23.90234375 C-0.00632813 22.96519531 -0.92671875 22.02804688 -1.875 21.0625 C-2.81984856 20.10761363 -3.76515633 19.15318141 -4.7109375 18.19921875 C-7.02018338 15.86640913 -9.32463203 13.52905914 -11.625 11.1875 C-9.31109399 6.3764021 -5.74738332 0.41052738 0 0 Z " fill="#D15B76" transform="translate(153.625,49.8125)"/>
<path d="M0 0 C2.99220268 1.36370299 5.29026529 2.94908083 7.75 5.125 C8.67039063 5.93324219 8.67039063 5.93324219 9.609375 6.7578125 C10.06828125 7.16773437 10.5271875 7.57765625 11 8 C9.54254576 11.36335594 7.68882146 13.54534005 5.0859375 16.109375 C4.32539063 16.86347656 3.56484375 17.61757812 2.78125 18.39453125 C1.9871875 19.17183594 1.193125 19.94914062 0.375 20.75 C-0.42679688 21.54277344 -1.22859375 22.33554688 -2.0546875 23.15234375 C-4.03202846 25.10614493 -6.01388909 27.05512103 -8 29 C-8.33 28.01 -8.66 27.02 -9 26 C-8.38125 25.443125 -7.7625 24.88625 -7.125 24.3125 C-4.86171271 22.1508652 -4.86171271 22.1508652 -4.0625 19.375 C-3 17 -3 17 -0.4375 15.8125 C0.366875 15.544375 1.17125 15.27625 2 15 C2.33 14.34 2.66 13.68 3 13 C2.34 12.67 1.68 12.34 1 12 C1.99 11.01 2.98 10.02 4 9 C3.34 8.34 2.68 7.68 2 7 C1.67 6.67 1.34 6.34 1 6 C0.34 6 -0.32 6 -1 6 C-1.33 6.99 -1.66 7.98 -2 9 C-2.928125 9.28875 -3.85625 9.5775 -4.8125 9.875 C-8.60813601 11.21463624 -9.59569023 12.8743973 -12 16 C-14.1171875 16.65234375 -14.1171875 16.65234375 -16 17 C-11.01595832 10.96668638 -5.58084697 5.4815829 0 0 Z " fill="#EDCD54" transform="translate(127,74)"/>
<path d="M0 0 C0.99 0.33 1.98 0.66 3 1 C3 1.66 3 2.32 3 3 C3.99 3.33 4.98 3.66 6 4 C8.25 5.8125 8.25 5.8125 10 8 C9.63907315 11.22777305 8.49858337 12.8715281 6.22436523 15.11621094 C5.64383896 15.69651062 5.06331268 16.2768103 4.4651947 16.87469482 C3.52142723 17.79523651 3.52142723 17.79523651 2.55859375 18.734375 C1.91632339 19.37240051 1.27405304 20.01042603 0.61231995 20.66778564 C-1.43901726 22.70234118 -3.50054273 24.72621379 -5.5625 26.75 C-6.95576234 28.12821491 -8.34834898 29.50711325 -9.74023438 30.88671875 C-13.15236865 34.26579046 -16.57367707 37.63531864 -20 41 C-20.33 40.34 -20.66 39.68 -21 39 C-20.67 38.34 -20.34 37.68 -20 37 C-19.34 37 -18.68 37 -18 37 C-17.773125 36.2575 -17.54625 35.515 -17.3125 34.75 C-15.75071394 31.47768636 -13.87764944 30.13979061 -11 28 C-10.67 27.34 -10.34 26.68 -10 26 C-9.34 26 -8.68 26 -8 26 C-8 25.34 -8 24.68 -8 24 C-7.01 24 -6.02 24 -5 24 C-4.67 23.01 -4.34 22.02 -4 21 C-3.34 21 -2.68 21 -2 21 C-1.67 19.35 -1.34 17.7 -1 16 C-0.01 16 0.98 16 2 16 C2.33 14.35 2.66 12.7 3 11 C3.66 11 4.32 11 5 11 C4.34 9.68 3.68 8.36 3 7 C1.576875 7.061875 1.576875 7.061875 0.125 7.125 C-3 7 -3 7 -5 5 C-3.35 3.35 -1.7 1.7 0 0 Z " fill="#DEC267" transform="translate(141,87)"/>
<path d="M0 0 C3.43605181 1.48229451 5.68701591 3.4295174 8.328125 6.0625 C9.52695313 7.25746094 9.52695313 7.25746094 10.75 8.4765625 C11.575 9.30929688 12.4 10.14203125 13.25 11 C14.09046875 11.83273438 14.9309375 12.66546875 15.796875 13.5234375 C16.5909375 14.32007813 17.385 15.11671875 18.203125 15.9375 C18.93176758 16.66839844 19.66041016 17.39929688 20.41113281 18.15234375 C22 20 22 20 22 22 C16.58461538 24.21538462 16.58461538 24.21538462 13.625 23.125 C13.08875 22.75375 12.5525 22.3825 12 22 C12.66 22 13.32 22 14 22 C14.33 20.68 14.66 19.36 15 18 C13.68 18 12.36 18 11 18 C11 17.34 11 16.68 11 16 C11.66 16 12.32 16 13 16 C12.67 14.68 12.34 13.36 12 12 C11.01 12.33 10.02 12.66 9 13 C9 12.34 9 11.68 9 11 C8.01 11 7.02 11 6 11 C6 10.34 6 9.68 6 9 C5.0925 9.33 4.185 9.66 3.25 10 C0 11 0 11 -4 11 C-3.52269162 9.5410574 -3.04308958 8.08286504 -2.5625 6.625 C-2.29566406 5.81289062 -2.02882812 5.00078125 -1.75390625 4.1640625 C-1 2 -1 2 0 0 Z " fill="#EDE8C3" transform="translate(64,139)"/>
<path d="M0 0 C-0.47275342 4.62641319 -2.11358668 6.5882322 -5.40234375 9.79296875 C-6.29244141 10.67017578 -7.18253906 11.54738281 -8.09960938 12.45117188 C-9.03611328 13.35416016 -9.97261719 14.25714844 -10.9375 15.1875 C-11.87013672 16.10208984 -12.80277344 17.01667969 -13.76367188 17.95898438 C-16.16777371 20.31441314 -18.58294357 22.65789106 -21 25 C-21.66 25.66 -22.32 26.32 -23 27 C-23 19.30667766 -21.91681325 17.51249884 -16.44140625 11.98242188 C-15.10916016 10.66081055 -15.10916016 10.66081055 -13.75 9.3125 C-12.87730469 8.41982422 -12.00460938 7.52714844 -11.10546875 6.60742188 C-10.26113281 5.76373047 -9.41679688 4.92003906 -8.546875 4.05078125 C-7.77182617 3.27387939 -6.99677734 2.49697754 -6.19824219 1.6965332 C-4 0 -4 0 0 0 Z " fill="#1A0A02" transform="translate(104,121)"/>
<path d="M0 0 C0.66 0.33 1.32 0.66 2 1 C1.7834375 1.8353125 1.7834375 1.8353125 1.5625 2.6875 C0.97230872 5.11384195 0.476571 7.54906345 0 10 C-0.66 10 -1.32 10 -2 10 C-1.67 11.32 -1.34 12.64 -1 14 C-1.66 14 -2.32 14 -3 14 C-3.29003906 14.88751953 -3.29003906 14.88751953 -3.5859375 15.79296875 C-4.94414719 19.9146645 -6.32050585 23.9950524 -8 28 C-9.98 27.67 -11.96 27.34 -14 27 C-7.91489362 7.91489362 -7.91489362 7.91489362 -2 2 C-1.34 2 -0.68 2 0 2 C0 1.34 0 0.68 0 0 Z " fill="#252523" transform="translate(67,125)"/>
<path d="M0 0 C0.66 0.33 1.32 0.66 2 1 C-0.64 3.64 -3.28 6.28 -6 9 C-5.34 10.32 -4.68 11.64 -4 13 C-4.66 13.66 -5.32 14.32 -6 15 C1.59 22.59 9.18 30.18 17 38 C15 42 15 42 12 44 C12.66 42.02 13.32 40.04 14 38 C7.73 31.73 1.46 25.46 -5 19 C-6.98 19.66 -8.96 20.32 -11 21 C-11.66 19.68 -12.32 18.36 -13 17 C-13.33 18.32 -13.66 19.64 -14 21 C-15.65 21 -17.3 21 -19 21 C-17.003961 18.66317386 -15.00403098 16.32996129 -13 14 C-12.13568359 12.99259766 -12.13568359 12.99259766 -11.25390625 11.96484375 C-7.65260107 7.80208787 -3.94012339 3.84402282 0 0 Z " fill="#8F8E8E" transform="translate(144,48)"/>
<path d="M0 0 C0.33 1.65 0.66 3.3 1 5 C0.34 5 -0.32 5 -1 5 C-1.33 6.65 -1.66 8.3 -2 10 C-4.60582371 10.93065133 -5.64198224 11.14917407 -8.25 10.0625 C-8.8275 9.711875 -9.405 9.36125 -10 9 C-10.33 9.66 -10.66 10.32 -11 11 C-11 10.34 -11 9.68 -11 9 C-11.886875 9.474375 -12.77375 9.94875 -13.6875 10.4375 C-16.57042756 11.79737149 -18.87610623 12.54060386 -22 13 C-20.58325973 11.30192124 -19.15237774 9.62079644 -17.6953125 7.95703125 C-16.63513406 6.7331847 -15.60334816 5.48345621 -14.6171875 4.19921875 C-10.39173972 -0.85924588 -6.31215471 -0.67362916 0 0 Z " fill="#FCD043" transform="translate(145,93)"/>
<path d="M0 0 C0.66 0 1.32 0 2 0 C2 0.66 2 1.32 2 2 C2.66 2.33 3.32 2.66 4 3 C-2.6 9.6 -9.2 16.2 -16 23 C-16.66 22.67 -17.32 22.34 -18 22 C-18 21.34 -18 20.68 -18 20 C-19.32 20.33 -20.64 20.66 -22 21 C-17.88380164 16.08064098 -13.59589638 11.47352044 -9 7 C-8.67 7.99 -8.34 8.98 -8 10 C-7.34 10 -6.68 10 -6 10 C-6 9.34 -6 8.68 -6 8 C-3.5 5.5 -3.5 5.5 -1 3 C-0.67 2.01 -0.34 1.02 0 0 Z " fill="#25150C" transform="translate(128,122)"/>
<path d="M0 0 C1.93711477 1.80930001 3.73922389 3.68320367 5.52294922 5.64355469 C6.15007812 6.30226563 6.77720703 6.96097656 7.42333984 7.63964844 C8.95303489 9.25108291 10.46386045 10.87643314 11.96044922 12.51855469 C11.63044922 13.17855469 11.30044922 13.83855469 10.96044922 14.51855469 C10.26177734 13.80828125 9.56310547 13.09800781 8.84326172 12.36621094 C7.93318359 11.44710937 7.02310547 10.52800781 6.08544922 9.58105469 C4.72806641 8.20626953 4.72806641 8.20626953 3.34326172 6.80371094 C1.18362667 4.50667842 1.18362667 4.50667842 -1.03955078 3.51855469 C-0.70955078 4.11667969 -0.37955078 4.71480469 -0.03955078 5.33105469 C0.96044922 7.51855469 0.96044922 7.51855469 0.96044922 10.51855469 C-2.03955078 9.51855469 -2.03955078 9.51855469 -4.41455078 7.01855469 C-7.14380614 4.41926387 -8.34355957 3.718338 -12.03955078 3.51855469 C-13.02955078 4.01355469 -13.02955078 4.01355469 -14.03955078 4.51855469 C-13.70955078 2.86855469 -13.37955078 1.21855469 -13.03955078 -0.48144531 C-14.35955078 -0.15144531 -15.67955078 0.17855469 -17.03955078 0.51855469 C-15.03955078 -2.48144531 -15.03955078 -2.48144531 -13.18188477 -3.19970703 C-8.42056099 -3.82586858 -3.89956923 -2.83248577 0 0 Z " fill="#67585A" transform="translate(163.03955078125,47.4814453125)"/>
<path d="M0 0 C0.66 0.33 1.32 0.66 2 1 C2 1.66 2 2.32 2 3 C2.99 3.33 3.98 3.66 5 4 C2.90820668 12.06834568 -1.95548098 16.46580622 -8 22 C-9.35462193 17.9361342 -8.5066082 15.97196708 -7 12 C-6.113125 11.154375 -5.22625 10.30875 -4.3125 9.4375 C-3.549375 8.633125 -2.78625 7.82875 -2 7 C-2.05392193 3.74961511 -2.05392193 3.74961511 -3 1 C-2.01 0.67 -1.02 0.34 0 0 Z " fill="#292525" transform="translate(152,91)"/>
<path d="M0 0 C3 1 3 1 5 4 C4.34 4 3.68 4 3 4 C1.84607545 6.3078491 1.46562834 8.47230331 1 11 C-2 12 -2 12 -4.1875 11.0625 C-4.785625 10.711875 -5.38375 10.36125 -6 10 C-6.33 11.32 -6.66 12.64 -7 14 C-8.65 14.33 -10.3 14.66 -12 15 C-11.71758359 13.53984709 -11.42373386 12.08190207 -11.125 10.625 C-10.96257812 9.81289062 -10.80015625 9.00078125 -10.6328125 8.1640625 C-10 6 -10 6 -8 4 C-6.7934375 3.7834375 -6.7934375 3.7834375 -5.5625 3.5625 C-2.7359483 2.94203743 -1.80907157 2.18992875 0 0 Z " fill="#F9CF3B" transform="translate(128,79)"/>
<path d="M0 0 C0.66 0.33 1.32 0.66 2 1 C2 2.32 2 3.64 2 5 C1.195625 5.474375 0.39125 5.94875 -0.4375 6.4375 C-1.283125 6.953125 -2.12875 7.46875 -3 8 C-3.12375 8.825 -3.2475 9.65 -3.375 10.5 C-3.684375 11.7375 -3.684375 11.7375 -4 13 C-6.30368736 14.06652192 -8.64018187 15.06421005 -11 16 C-12.68538601 17.99665314 -12.68538601 17.99665314 -14 20 C-16 21.3125 -16 21.3125 -18 22 C-18.99 21.67 -19.98 21.34 -21 21 C-14.07 14.07 -7.14 7.14 0 0 Z " fill="#F0D159" transform="translate(98,103)"/>
<path d="M0 0 C0.66 0 1.32 0 2 0 C0.60652624 3.15204981 -1.02485079 5.26171773 -3.4765625 7.671875 C-4.146875 8.33574219 -4.8171875 8.99960938 -5.5078125 9.68359375 C-6.20648438 10.36550781 -6.90515625 11.04742187 -7.625 11.75 C-8.33140625 12.44738281 -9.0378125 13.14476562 -9.765625 13.86328125 C-11.50598703 15.58012488 -13.25084981 17.29211832 -15 19 C-18.18086518 17.49053489 -20.29869906 15.92058175 -22.75 13.375 C-23.36359375 12.74335938 -23.9771875 12.11171875 -24.609375 11.4609375 C-25.06828125 10.97882813 -25.5271875 10.49671875 -26 10 C-25.06725891 8.87105124 -24.12859878 7.74699124 -23.1875 6.625 C-22.66542969 5.99851563 -22.14335938 5.37203125 -21.60546875 4.7265625 C-20 3 -20 3 -17 1 C-17.8125 3.4375 -17.8125 3.4375 -19 6 C-19.99 6.33 -20.98 6.66 -22 7 C-21.34 8.98 -20.68 10.96 -20 13 C-17.25038489 13.94607807 -17.25038489 13.94607807 -14 14 C-11.22877725 11.64573501 -11.22877725 11.64573501 -9 9 C-8.34 9 -7.68 9 -7 9 C-7 7.68 -7 6.36 -7 5 C-5.824375 4.87625 -5.824375 4.87625 -4.625 4.75 C-1.85250896 4.27193661 -1.85250896 4.27193661 -0.6875 1.9375 C-0.460625 1.298125 -0.23375 0.65875 0 0 Z " fill="#DEC167" transform="translate(94,124)"/>
<path d="M0 0 C1.485 0.99 1.485 0.99 3 2 C3 2.66 3 3.32 3 4 C3.66 4 4.32 4 5 4 C5 4.66 5 5.32 5 6 C7.3015411 6.77802187 7.3015411 6.77802187 10 7 C12.30504044 5.66846734 12.30504044 5.66846734 14 4 C14 4.66 14 5.32 14 6 C15.65 5.34 17.3 4.68 19 4 C19 7 19 7 16.8125 9.48046875 C15.884375 10.37378906 14.95625 11.26710938 14 12.1875 C13.071875 13.08855469 12.14375 13.98960938 11.1875 14.91796875 C10.465625 15.60503906 9.74375 16.29210937 9 17 C8 14 8 14 9 11 C5.94419026 8.41222792 5.94419026 8.41222792 2 8 C1.67 8.66 1.34 9.32 1 10 C0.34 8.35 -0.32 6.7 -1 5 C-0.34 4.34 0.32 3.68 1 3 C0.67 2.01 0.34 1.02 0 0 Z " fill="#343031" transform="translate(147,84)"/>
<path d="M0 0 C0 3 0 3 -1 6 C-0.34 6.66 0.32 7.32 1 8 C-4.23112541 13.74147911 -9.14640245 16.81006098 -17 18 C-17 17.34 -17 16.68 -17 16 C-16.34 16 -15.68 16 -15 16 C-14.67 15.01 -14.34 14.02 -14 13 C-11.25147379 9.95433582 -8.82622743 7.5588334 -5 6 C-5 5.34 -5 4.68 -5 4 C-3.37373596 2.61767557 -1.7074998 1.28062485 0 0 Z " fill="#3E3B3B" transform="translate(117,76)"/>
<path d="M0 0 C5.29012124 4.40843437 10.18808428 9.07559794 15 14 C11.25 15.125 11.25 15.125 9 14 C8.67 13.67 8.34 13.34 8 13 C7.01 13.495 7.01 13.495 6 14 C5.01 13.34 4.02 12.68 3 12 C3 11.34 3 10.68 3 10 C1.68 9.34 0.36 8.68 -1 8 C-1 7.01 -1 6.02 -1 5 C-0.34 5 0.32 5 1 5 C0.67 3.35 0.34 1.7 0 0 Z " fill="#4E4F47" transform="translate(132,69)"/>
<path d="M0 0 C3.90285767 1.58667578 6.33520982 4.13350481 9.25 7.125 C10.14203125 8.03507812 11.0340625 8.94515625 11.953125 9.8828125 C12.62859375 10.58148438 13.3040625 11.28015625 14 12 C13.01 13.485 13.01 13.485 12 15 C12.33 15 12.66 15 13 15 C13 17.31 13 19.62 13 22 C12.67 22 12.34 22 12 22 C12 20.35 12 18.7 12 17 C11.01 16.67 10.02 16.34 9 16 C3.71450623 11.27954788 1.11876617 6.96121171 0 0 Z " fill="#20070B" transform="translate(162,51)"/>
<path d="M0 0 C3 1 3 1 4.6875 3.125 C6.33137174 6.7258619 6.4988668 9.08033226 6 13 C4 15.4375 4 15.4375 2 17 C2 16.34 2 15.68 2 15 C0.02 15.99 0.02 15.99 -2 17 C-1.85691406 15.73542969 -1.85691406 15.73542969 -1.7109375 14.4453125 C-1.60007813 13.34960938 -1.48921875 12.25390625 -1.375 11.125 C-1.25898438 10.03445312 -1.14296875 8.94390625 -1.0234375 7.8203125 C-1.01570312 6.88960938 -1.00796875 5.95890625 -1 5 C-1.66 4.34 -2.32 3.68 -3 3 C-2.01 2.34 -1.02 1.68 0 1 C0 0.67 0 0.34 0 0 Z " fill="#4F4042" transform="translate(175,62)"/>
<path d="M0 0 C1.32 0.66 2.64 1.32 4 2 C-1.61 7.61 -7.22 13.22 -13 19 C-14.32 17.68 -15.64 16.36 -17 15 C-16.195625 14.731875 -15.39125 14.46375 -14.5625 14.1875 C-13.716875 13.795625 -12.87125 13.40375 -12 13 C-11.67 12.01 -11.34 11.02 -11 10 C-9.68 10 -8.36 10 -7 10 C-6.731875 9.443125 -6.46375 8.88625 -6.1875 8.3125 C-2.58181818 1.29090909 -2.58181818 1.29090909 0 0 Z " fill="#302E33" transform="translate(107,144)"/>
<path d="M0 0 C0.33 0.99 0.66 1.98 1 3 C-0.3921875 3.0928125 -0.3921875 3.0928125 -1.8125 3.1875 C-5.15123536 3.68008614 -5.15123536 3.68008614 -6.75 6.375 C-7.1625 7.24125 -7.575 8.1075 -8 9 C-10 12 -10 12 -13 13 C-13.33 13.99 -13.66 14.98 -14 16 C-17.05093503 16.28782406 -19.95971825 16.44124443 -23 16 C-25.125 13.6875 -25.125 13.6875 -26 11 C-25.67 10.01 -25.34 9.02 -25 8 C-22.69 9.98 -20.38 11.96 -18 14 C-17.09636719 13.07316406 -16.19273438 12.14632812 -15.26171875 11.19140625 C-14.07057901 9.9815084 -12.87915809 8.77188732 -11.6875 7.5625 C-10.79514648 6.64500977 -10.79514648 6.64500977 -9.88476562 5.70898438 C-9.30791016 5.12568359 -8.73105469 4.54238281 -8.13671875 3.94140625 C-7.60780029 3.40201416 -7.07888184 2.86262207 -6.53393555 2.30688477 C-4.48432225 0.56065207 -2.68327217 0 0 0 Z " fill="#160903" transform="translate(110,142)"/>
<path d="M0 0 C0.33 0.66 0.66 1.32 1 2 C1.66 2 2.32 2 3 2 C3 2.66 3 3.32 3 4 C4.32 4.33 5.64 4.66 7 5 C5.875 7.9375 5.875 7.9375 4 11 C0.81055486 11.97636076 -0.97172501 12.51413749 -4 11 C-4.77734375 9.171875 -4.77734375 9.171875 -5 7 C-4.00390625 5.078125 -4.00390625 5.078125 -2.5625 3.25 C-2.08941406 2.63640625 -1.61632812 2.0228125 -1.12890625 1.390625 C-0.75636719 0.93171875 -0.38382812 0.4728125 0 0 Z " fill="#F9D138" transform="translate(91,140)"/>
<path d="M0 0 C0.99 0.33 1.98 0.66 3 1 C-1.29 5.29 -5.58 9.58 -10 14 C-10.99 13.34 -11.98 12.68 -13 12 C-11.53892216 6.52095808 -11.53892216 6.52095808 -9.125 4.1875 C-7.04003953 3.02237503 -5.31218864 2.52210711 -3 2 C-2.01 1.34 -1.02 0.68 0 0 Z " fill="#211B10" transform="translate(108,90)"/>
<path d="M0 0 C1.32 0.33 2.64 0.66 4 1 C2.11900392 3.0159958 0.22241328 5.01171982 -1.6875 7 C-2.48317383 7.85851562 -2.48317383 7.85851562 -3.29492188 8.734375 C-7.35216114 12.91606946 -7.35216114 12.91606946 -10.89453125 13.375 C-11.58933594 13.25125 -12.28414063 13.1275 -13 13 C-13.33 13.66 -13.66 14.32 -14 15 C-14 14.01 -14 13.02 -14 12 C-13.34 11.67 -12.68 11.34 -12 11 C-11.82791016 10.06414062 -11.82791016 10.06414062 -11.65234375 9.109375 C-11 7 -11 7 -9.00390625 5.515625 C-8.19824219 5.09796875 -7.39257812 4.6803125 -6.5625 4.25 C-5.35787109 3.60804688 -5.35787109 3.60804688 -4.12890625 2.953125 C-2 2 -2 2 0 2 C0 1.34 0 0.68 0 0 Z " fill="#EBC74E" transform="translate(116,128)"/>
<path d="M0 0 C0.82638376 2.89234315 1 4.88742431 1 8 C-0.5625 10.25 -0.5625 10.25 -3 12 C-6.5625 12.125 -6.5625 12.125 -10 12 C-10.99 12.66 -11.98 13.32 -13 14 C-12.34 12.68 -11.68 11.36 -11 10 C-10.34 10 -9.68 10 -9 10 C-9 9.34 -9 8.68 -9 8 C-8.34 8 -7.68 8 -7 8 C-7 7.34 -7 6.68 -7 6 C-6.34 6 -5.68 6 -5 6 C-5 5.34 -5 4.68 -5 4 C-3.37373596 2.61767557 -1.7074998 1.28062485 0 0 Z " fill="#2E2420" transform="translate(95,98)"/>
<path d="M0 0 C0.66 0.33 1.32 0.66 2 1 C1.67 1.66 1.34 2.32 1 3 C2.423125 3.12375 2.423125 3.12375 3.875 3.25 C7 4 7 4 8.375 6.0625 C8.58125 6.701875 8.7875 7.34125 9 8 C7.35 8.66 5.7 9.32 4 10 C3.67 9.34 3.34 8.68 3 8 C1.35636866 7.27840576 -0.31050386 6.60648579 -2 6 C-2.309375 6.61875 -2.61875 7.2375 -2.9375 7.875 C-3.625 9.25 -4.3125 10.625 -5 12 C-5.66 12 -6.32 12 -7 12 C-5.61735163 9.13132769 -4.07851447 6.43975968 -2.375 3.75 C-1.92898437 3.04359375 -1.48296875 2.3371875 -1.0234375 1.609375 C-0.68570313 1.07828125 -0.34796875 0.5471875 0 0 Z " fill="#070407" transform="translate(140,80)"/>
<path d="M0 0 C3 2 3 2 3.6875 4.125 C3.790625 4.74375 3.89375 5.3625 4 6 C4.66 5.67 5.32 5.34 6 5 C6.99 7.64 7.98 10.28 9 13 C3.50847458 12.38983051 3.50847458 12.38983051 1.125 10.5625 C0 9 0 9 0 7 C-0.66 7 -1.32 7 -2 7 C-1.34 4.69 -0.68 2.38 0 0 Z " fill="#E3DBBF" transform="translate(57,156)"/>
<path d="M0 0 C0 3.27046435 -0.08048688 5.8473836 -1 9 C-4.51309153 11.31544669 -7.85652915 12.39066605 -12 13 C-8.19524578 8.43969176 -4.25030379 4.14910608 0 0 Z " fill="#E7CB5D" transform="translate(135,93)"/>
<path d="M0 0 C0.66 0.33 1.32 0.66 2 1 C2 1.66 2 2.32 2 3 C2.99 3.33 3.98 3.66 5 4 C4.34 5.98 3.68 7.96 3 10 C0.03 9.505 0.03 9.505 -3 9 C-2.814375 8.236875 -2.62875 7.47375 -2.4375 6.6875 C-1.77180827 3.91032625 -1.77180827 3.91032625 -3 1 C-2.01 0.67 -1.02 0.34 0 0 Z " fill="#080203" transform="translate(152,91)"/>
<path d="M0 0 C0 3 0 3 -2 6 C-2.66 6 -3.32 6 -4 6 C-2.74390448 11.02438208 -1.12524964 12.96034237 3 16 C3 16.66 3 17.32 3 18 C-0.21524305 16.59155282 -2.32183868 14.89655214 -4.75 12.375 C-5.36359375 11.74335938 -5.9771875 11.11171875 -6.609375 10.4609375 C-7.06828125 9.97882813 -7.5271875 9.49671875 -8 9 C-7.04270084 7.87411986 -6.08412105 6.7493285 -5.125 5.625 C-4.59132813 4.99851563 -4.05765625 4.37203125 -3.5078125 3.7265625 C-2.38567993 2.44163349 -1.20628025 1.20628025 0 0 Z " fill="#DDC379" transform="translate(76,125)"/>
<path d="M0 0 C0 1.32 0 2.64 0 4 C-0.66 4 -1.32 4 -2 4 C-2 3.34 -2 2.68 -2 2 C-2.66 2 -3.32 2 -4 2 C-4.103125 2.5775 -4.20625 3.155 -4.3125 3.75 C-5.10896465 6.35661158 -6.19065277 7.9735311 -8 10 C-8.66 10 -9.32 10 -10 10 C-10 10.66 -10 11.32 -10 12 C-10.66 12 -11.32 12 -12 12 C-11.85015836 7.05522572 -9.16394878 4.68957045 -5.88671875 1.35546875 C-4 0 -4 0 0 0 Z " fill="#130802" transform="translate(132,120)"/>
<path d="M0 0 C0.99 0.33 1.98 0.66 3 1 C3 1.66 3 2.32 3 3 C3.99 3.33 4.98 3.66 6 4 C6 4.66 6 5.32 6 6 C4.54364629 6.22174933 3.08477044 6.42698698 1.625 6.625 C0.81289062 6.74101563 0.00078125 6.85703125 -0.8359375 6.9765625 C-1.55007812 6.98429687 -2.26421875 6.99203125 -3 7 C-3.66 6.34 -4.32 5.68 -5 5 C-3.35 3.35 -1.7 1.7 0 0 Z " fill="#D9BD5E" transform="translate(141,87)"/>
<path d="M0 0 C0.99 0.66 1.98 1.32 3 2 C2.01 2.33 1.02 2.66 0 3 C-0.73323796 5.01508358 -0.73323796 5.01508358 -1 7 C-1.928125 7.12375 -1.928125 7.12375 -2.875 7.25 C-5.18437567 7.81258459 -5.18437567 7.81258459 -6.25 10.0625 C-6.4975 10.701875 -6.745 11.34125 -7 12 C-8.32 11.67 -9.64 11.34 -11 11 C-7.37 7.37 -3.74 3.74 0 0 Z " fill="#DFC45D" transform="translate(122,106)"/>
<path d="M0 0 C0 3 0 3 -1 6 C-0.34 6.66 0.32 7.32 1 8 C-0.65 9.32 -2.3 10.64 -4 12 C-4.33 11.01 -4.66 10.02 -5 9 C-6.32 9.33 -7.64 9.66 -9 10 C-8.34 8.68 -7.68 7.36 -7 6 C-6.34 6 -5.68 6 -5 6 C-5 5.34 -5 4.68 -5 4 C-3.37373596 2.61767557 -1.7074998 1.28062485 0 0 Z " fill="#45433C" transform="translate(117,76)"/>
<path d="M0 0 C1 2 1 2 0.8125 3.875 C-0.25622353 6.67012309 -1.70360332 8.10884979 -4 10 C-4.99 10 -5.98 10 -7 10 C-7.33 10.99 -7.66 11.98 -8 13 C-8.99 12.34 -9.98 11.68 -11 11 C-7.37 7.37 -3.74 3.74 0 0 Z " fill="#E3C763" transform="translate(110,91)"/>
<path d="M0 0 C2.99220268 1.36370299 5.29026529 2.94908083 7.75 5.125 C8.67039063 5.93324219 8.67039063 5.93324219 9.609375 6.7578125 C10.06828125 7.16773437 10.5271875 7.57765625 11 8 C9.25 11.875 9.25 11.875 7 13 C7 10.69 7 8.38 7 6 C3.5980513 3.90649311 0.94727588 3.82057837 -3 4 C-2.01 2.68 -1.02 1.36 0 0 Z " fill="#D5BC73" transform="translate(127,74)"/>
<path d="M0 0 C0.66 0.33 1.32 0.66 2 1 C2 3.64 2 6.28 2 9 C0.02 9 -1.96 9 -4 9 C-4 8.34 -4 7.68 -4 7 C-4.66 7 -5.32 7 -6 7 C-6 6.34 -6 5.68 -6 5 C-5.01 4.67 -4.02 4.34 -3 4 C-2.34 4.33 -1.68 4.66 -1 5 C-0.67 3.35 -0.34 1.7 0 0 Z " fill="#0B0606" transform="translate(131,64)"/>
<path d="M0 0 C0.6875 1.8125 0.6875 1.8125 1 4 C-0.3125 5.5 -0.3125 5.5 -2 7 C-3.17574711 9.09989652 -3.17574711 9.09989652 -4 11 C-4.99 11 -5.98 11 -7 11 C-7 11.66 -7 12.32 -7 13 C-8.62626404 14.38232443 -10.2925002 15.71937515 -12 17 C-12.66 16.67 -13.32 16.34 -14 16 C-12.60974609 14.64455078 -12.60974609 14.64455078 -11.19140625 13.26171875 C-9.9815084 12.07057901 -8.77188732 10.87915809 -7.5625 9.6875 C-6.95083984 9.09259766 -6.33917969 8.49769531 -5.70898438 7.88476562 C-5.12568359 7.30791016 -4.54238281 6.73105469 -3.94140625 6.13671875 C-3.40201416 5.60780029 -2.86262207 5.07888184 -2.30688477 4.53393555 C-0.76440675 2.91744147 -0.76440675 2.91744147 0 0 Z " fill="#D7BE65" transform="translate(104,122)"/>
<path d="M0 0 C0.66 0.33 1.32 0.66 2 1 C1.34 2.65 0.68 4.3 0 6 C0.66 6.66 1.32 7.32 2 8 C2 8.99 2 9.98 2 11 C-0.16874252 10.49396008 -1.99967627 10.00016187 -4 9 C-3.125 4.25 -3.125 4.25 -2 2 C-1.34 2 -0.68 2 0 2 C0 1.34 0 0.68 0 0 Z " fill="#F6D037" transform="translate(78,127)"/>
<path d="M0 0 C0.66 0 1.32 0 2 0 C2 0.66 2 1.32 2 2 C2.66 2.33 3.32 2.66 4 3 C1.03 5.97 -1.94 8.94 -5 12 C-5.66 11.34 -6.32 10.68 -7 10 C-6.57847656 9.52949219 -6.15695313 9.05898437 -5.72265625 8.57421875 C-5.17480469 7.95160156 -4.62695312 7.32898438 -4.0625 6.6875 C-3.51722656 6.07261719 -2.97195312 5.45773438 -2.41015625 4.82421875 C-0.79918441 2.94758042 -0.79918441 2.94758042 0 0 Z " fill="#302E2E" transform="translate(128,122)"/>
<path d="M0 0 C4.2742558 1.5830577 6.26531794 4.50568404 9 8 C5.98968256 8.93423645 5.13349732 9.04449911 2 8 C1.26953125 6.15234375 1.26953125 6.15234375 0.8125 3.9375 C0.65394531 3.20402344 0.49539062 2.47054687 0.33203125 1.71484375 C0.22246094 1.14894531 0.11289063 0.58304688 0 0 Z " fill="#050502" transform="translate(162,51)"/>
<path d="M0 0 C0.66 1.32 1.32 2.64 2 4 C0.25 6.0625 0.25 6.0625 -2 8 C-4.25 7.75 -4.25 7.75 -6 7 C-3 1 -3 1 0 0 Z " fill="#110804" transform="translate(121,75)"/>
<path d="M0 0 C0.99 0.33 1.98 0.66 3 1 C-0.82180842 5.4008703 -3.47371099 6.80805531 -9 8 C-8.25 5.5625 -8.25 5.5625 -7 3 C-5.0625 2.3125 -5.0625 2.3125 -3 2 C-2.01 1.34 -1.02 0.68 0 0 Z " fill="#110A02" transform="translate(108,90)"/>
<path d="M0 0 C1.12894876 0.93274109 2.25300876 1.87140122 3.375 2.8125 C4.00148437 3.33457031 4.62796875 3.85664062 5.2734375 4.39453125 C7 6 7 6 9 9 C5.7 8.34 2.4 7.68 -1 7 C-1 6.34 -1 5.68 -1 5 C-0.34 5 0.32 5 1 5 C0.67 3.35 0.34 1.7 0 0 Z " fill="#5F5B62" transform="translate(132,69)"/>
<path d="M0 0 C3.125 0.375 3.125 0.375 6 1 C4.875 2.9375 4.875 2.9375 3 5 C-0.1875 5.75 -0.1875 5.75 -3 6 C-2.42655063 3.13275314 -2.1385485 2.1385485 0 0 Z " fill="#120805" transform="translate(85,109)"/>
<path d="M0 0 C1.485 0.99 1.485 0.99 3 2 C3 2.66 3 3.32 3 4 C3.66 4 4.32 4 5 4 C5.33 4.99 5.66 5.98 6 7 C5.360625 7.12375 4.72125 7.2475 4.0625 7.375 C3.0415625 7.684375 3.0415625 7.684375 2 8 C1.67 8.66 1.34 9.32 1 10 C0.34 8.35 -0.32 6.7 -1 5 C-0.34 4.34 0.32 3.68 1 3 C0.67 2.01 0.34 1.02 0 0 Z " fill="#433D3D" transform="translate(147,84)"/>
<path d="M0 0 C0.33 1.32 0.66 2.64 1 4 C0.443125 4.20625 -0.11375 4.4125 -0.6875 4.625 C-3.28278158 5.98938378 -3.28278158 5.98938378 -5.5 9.0625 C-8.01895394 12.02227088 -8.45428833 12.39151982 -12 13 C-8.19524578 8.43969176 -4.25030379 4.14910608 0 0 Z " fill="#DCC06B" transform="translate(123,78)"/>
<path d="M0 0 C0.99 0.33 1.98 0.66 3 1 C0.03 3.97 0.03 3.97 -3 7 C-6.16115776 5.63016497 -6.9927092 5.0109362 -9 2 C-6.03 2 -3.06 2 0 2 C0 1.34 0 0.68 0 0 Z " fill="#BE586F" transform="translate(169,76)"/>
<path d="M0 0 C3.75376152 1.25125384 4.24073289 2.5652404 6 6 C6 6.66 6 7.32 6 8 C5.34 8 4.68 8 4 8 C3.67 7.34 3.34 6.68 3 6 C2.175 5.835 1.35 5.67 0.5 5.5 C-0.325 5.335 -1.15 5.17 -2 5 C-2.33 4.34 -2.66 3.68 -3 3 C-2.01 2.34 -1.02 1.68 0 1 C0 0.67 0 0.34 0 0 Z M2 8 C4 9 4 9 4 9 Z " fill="#534D4F" transform="translate(175,62)"/>
<path d="M0 0 C1.14926266 0.95421808 2.29430541 1.91352045 3.4375 2.875 C4.07558594 3.40867188 4.71367188 3.94234375 5.37109375 4.4921875 C7 6 7 6 8 8 C7.01 8.33 6.02 8.66 5 9 C4.01 8.34 3.02 7.68 2 7 C2 6.34 2 5.68 2 5 C1.34 4.67 0.68 4.34 0 4 C0 2.68 0 1.36 0 0 Z " fill="#241508" transform="translate(68,134)"/>
<path d="M0 0 C0.66 0.33 1.32 0.66 2 1 C1.41196203 4.02419525 0.77321882 7.01758453 0 10 C-1.65 8.68 -3.3 7.36 -5 6 C-3.35 4.02 -1.7 2.04 0 0 Z " fill="#464444" transform="translate(74,118)"/>
<path d="M0 0 C4.38157502 0.23684189 6.86241268 2.03672309 10 5 C10.33 5.99 10.66 6.98 11 8 C10.01 8 9.02 8 8 8 C8 7.34 8 6.68 8 6 C7.34 6 6.68 6 6 6 C6 5.34 6 4.68 6 4 C3.09399739 2.74335022 1.20395416 2 -2 2 C-1.34 1.34 -0.68 0.68 0 0 Z " fill="#C15A71" transform="translate(151,50)"/>
<path d="M0 0 C-0.99 0.8971875 -0.99 0.8971875 -2 1.8125 C-4.3373846 3.87501834 -4.3373846 3.87501834 -4 7 C-5.65 7.33 -7.3 7.66 -9 8 C-8.34 7.34 -7.68 6.68 -7 6 C-7.66 5.34 -8.32 4.68 -9 4 C-8.34 3.67 -7.68 3.34 -7 3 C-7.66 2.67 -8.32 2.34 -9 2 C-8.67 1.34 -8.34 0.68 -8 0 C-2.55072464 -1.27536232 -2.55072464 -1.27536232 0 0 Z " fill="#3A3530" transform="translate(70,168)"/>
<path d="M0 0 C0.33 0.99 0.66 1.98 1 3 C-0.65 4.32 -2.3 5.64 -4 7 C-4.99 5.68 -5.98 4.36 -7 3 C-6.21625 2.690625 -5.4325 2.38125 -4.625 2.0625 C-2.07669872 1.07124962 -2.07669872 1.07124962 0 0 Z " fill="#1E2020" transform="translate(97,156)"/>
<path d="M0 0 C1.17539996 0.92652701 2.34010577 1.86663387 3.5 2.8125 C4.1496875 3.33457031 4.799375 3.85664063 5.46875 4.39453125 C7 6 7 6 7 9 C6.67 8.34 6.34 7.68 6 7 C5.01 7.33 4.02 7.66 3 8 C3 7.34 3 6.68 3 6 C2.01 6 1.02 6 0 6 C0 4.02 0 2.04 0 0 Z " fill="#E2DDC1" transform="translate(70,144)"/>
<path d="M0 0 C1.32 0.33 2.64 0.66 4 1 C0.7 4.3 -2.6 7.6 -6 11 C-6.33 10.34 -6.66 9.68 -7 9 C-6.67 8.34 -6.34 7.68 -6 7 C-5.34 7 -4.68 7 -4 7 C-3.67 6.01 -3.34 5.02 -3 4 C-2.34 4 -1.68 4 -1 4 C-0.67 2.68 -0.34 1.36 0 0 Z " fill="#D8BC6A" transform="translate(103,141)"/>
<path d="M0 0 C2 0.9375 2 0.9375 3.25 4 C3.4975 4.969375 3.745 5.93875 4 6.9375 C1 6.9375 1 6.9375 -0.38671875 5.625 C-1.59114583 4.0625 -2.79557292 2.5 -4 0.9375 C-2 -0.0625 -2 -0.0625 0 0 Z " fill="#0D0B08" transform="translate(153,73.0625)"/>
<path d="M0 0 C0.66 0.33 1.32 0.66 2 1 C1.5 3.375 1.5 3.375 0 6 C-2.66525288 7.08241903 -5.1407915 7.49272107 -8 8 C-3.375 2.25 -3.375 2.25 0 0 Z " fill="#060303" transform="translate(149,46)"/>
<path d="M0 0 C0.625 1.875 0.625 1.875 1 4 C-0.99550146 5.99550146 -2.47924835 6.81376393 -5 8 C-6.11375 8.556875 -6.11375 8.556875 -7.25 9.125 C-7.8275 9.41375 -8.405 9.7025 -9 10 C-9 9.34 -9 8.68 -9 8 C-8.34 8 -7.68 8 -7 8 C-7 7.34 -7 6.68 -7 6 C-6.34 6 -5.68 6 -5 6 C-5 5.34 -5 4.68 -5 4 C-3.37373596 2.61767557 -1.7074998 1.28062485 0 0 Z " fill="#535451" transform="translate(95,98)"/>
<path d="M0 0 C2.7839183 1.39195915 2.97898997 3.15575779 4 6 C2.35 6.33 0.7 6.66 -1 7 C-1.33 5.35 -1.66 3.7 -2 2 C-1.34 2 -0.68 2 0 2 C0 1.34 0 0.68 0 0 Z " fill="#0F0F10" transform="translate(89,158)"/>
<path d="M0 0 C-3.22667476 2.76572122 -6.04189917 4.50234023 -10 6 C-10.66 6.66 -11.32 7.32 -12 8 C-12 6.68 -12 5.36 -12 4 C-10.68 3.67 -9.36 3.34 -8 3 C-8 2.34 -8 1.68 -8 1 C-5.07175348 0.02391783 -3.04386724 -0.08226668 0 0 Z " fill="#E2C359" transform="translate(103,120)"/>
<path d="M0 0 C0.99 0.66 1.98 1.32 3 2 C0.36 4.64 -2.28 7.28 -5 10 C-5.33 9.01 -5.66 8.02 -6 7 C-4.1875 4.3125 -4.1875 4.3125 -2 2 C-1.34 2 -0.68 2 0 2 C0 1.34 0 0.68 0 0 Z " fill="#393837" transform="translate(138,114)"/>
<path d="M0 0 C0.99 0.33 1.98 0.66 3 1 C2.34 2.32 1.68 3.64 1 5 C0.34 5 -0.32 5 -1 5 C-1 5.66 -1 6.32 -1 7 C-1.99 7.33 -2.98 7.66 -4 8 C-3.50168276 4.31245243 -2.89932357 2.39509338 0 0 Z " fill="#070506" transform="translate(78,116)"/>
<path d="M0 0 C2 3 2 3 1.625 6.1875 C1.41875 7.115625 1.2125 8.04375 1 9 C0.01 8.67 -0.98 8.34 -2 8 C-2 5.69 -2 3.38 -2 1 C-1.34 0.67 -0.68 0.34 0 0 Z " fill="#080405" transform="translate(178,67)"/>
<path d="M0 0 C0.99 0.33 1.98 0.66 3 1 C2.34 1 1.68 1 1 1 C1 2.32 1 3.64 1 5 C-0.98 5.66 -2.96 6.32 -5 7 C-4.6189482 4.23737447 -4.16402868 3.15856106 -2.125 1.1875 C-1.42375 0.795625 -0.7225 0.40375 0 0 Z " fill="#080402" transform="translate(70,167)"/>
<path d="M0 0 C0.99 0.33 1.98 0.66 3 1 C0.69 3.31 -1.62 5.62 -4 8 C-4.99 7.01 -5.98 6.02 -7 5 C-6.401875 4.731875 -5.80375 4.46375 -5.1875 4.1875 C-3.02775192 3.01506533 -1.64209744 1.80630718 0 0 Z " fill="#D4BC5E" transform="translate(84,134)"/>
<path d="M0 0 C0 1.32 0 2.64 0 4 C-0.66 4 -1.32 4 -2 4 C-2.33 4.99 -2.66 5.98 -3 7 C-3.144375 6.360625 -3.28875 5.72125 -3.4375 5.0625 C-3.81007181 3.02454854 -3.81007181 3.02454854 -5 2 C-5.99 1.67 -6.98 1.34 -8 1 C-2.25 -1.125 -2.25 -1.125 0 0 Z " fill="#F8CF36" transform="translate(146,94)"/>
<path d="M0 0 C0.5775 0.515625 1.155 1.03125 1.75 1.5625 C3.87827523 3.26505193 3.87827523 3.26505193 6.25 2.6875 C6.8275 2.460625 7.405 2.23375 8 2 C8.33 2.66 8.66 3.32 9 4 C8.67 4.66 8.34 5.32 8 6 C5.69 5.67 3.38 5.34 1 5 C0.67 3.35 0.34 1.7 0 0 Z " fill="#2B040A" transform="translate(160,79)"/>
<path d="M0 0 C0.66 0.33 1.32 0.66 2 1 C1.67 1.66 1.34 2.32 1 3 C1.66 3.66 2.32 4.32 3 5 C1.35 6.65 -0.3 8.3 -2 10 C-2 2 -2 2 0 0 Z " fill="#1E1104" transform="translate(83,138)"/>
<path d="M0 0 C2.97 0.495 2.97 0.495 6 1 C4.02 3.31 2.04 5.62 0 8 C-0.66 7.01 -1.32 6.02 -2 5 C-1.34 4.67 -0.68 4.34 0 4 C0 2.68 0 1.36 0 0 Z " fill="#3D3135" transform="translate(149,100)"/>
<path d="M0 0 C1.051875 0.2475 2.10375 0.495 3.1875 0.75 C1.85416667 1.41666667 0.52083333 2.08333333 -0.8125 2.75 C-1.4725 3.141875 -2.1325 3.53375 -2.8125 3.9375 C-5.24113035 4.92413108 -6.38697091 4.61626039 -8.8125 3.75 C-5.66311307 0.60061307 -4.55934222 -0.29897326 0 0 Z " fill="#DFD5B9" transform="translate(76.8125,162.25)"/>
<path d="M0 0 C1.98 0 3.96 0 6 0 C4.02 2.31 2.04 4.62 0 7 C-1.04449911 3.86650268 -0.93423645 3.01031744 0 0 Z " fill="#3A302F" transform="translate(115,135)"/>
<path d="M0 0 C2.31 0 4.62 0 7 0 C7.33 1.32 7.66 2.64 8 4 C7.01 4.495 7.01 4.495 6 5 C3.98079663 3.69593116 1.98075027 2.36176581 0 1 C0 0.67 0 0.34 0 0 Z " fill="#181008" transform="translate(131,76)"/>
<path d="M0 0 C0.33 0.66 0.66 1.32 1 2 C0.67 2.66 0.34 3.32 0 4 C0.99 4.66 1.98 5.32 3 6 C1.02 6.66 -0.96 7.32 -3 8 C-2.67 6.35 -2.34 4.7 -2 3 C-3.32 3.33 -4.64 3.66 -6 4 C-4 1 -4 1 -1.875 0.3125 C-1.25625 0.209375 -0.6375 0.10625 0 0 Z " fill="#524445" transform="translate(152,44)"/>
<path d="M0 0 C0.99 0.33 1.98 0.66 3 1 C2.34 2.65 1.68 4.3 1 6 C-0.32 5.67 -1.64 5.34 -3 5 C-2.625 3.0625 -2.625 3.0625 -2 1 C-1.34 0.67 -0.68 0.34 0 0 Z " fill="#F0E7C2" transform="translate(61,151)"/>
<path d="M0 0 C2.125 0.9375 2.125 0.9375 4 2 C2.75 3.5 2.75 3.5 1 5 C-0.32 5 -1.64 5 -3 5 C-2.625 3.0625 -2.625 3.0625 -2 1 C-1.34 0.67 -0.68 0.34 0 0 Z " fill="#231F21" transform="translate(107,144)"/>
<path d="M0 0 C0.66 0 1.32 0 2 0 C1.34 2.31 0.68 4.62 0 7 C-1.32 6.67 -2.64 6.34 -4 6 C-3.34 4.68 -2.68 3.36 -2 2 C-1.34 2 -0.68 2 0 2 C0 1.34 0 0.68 0 0 Z " fill="#120F14" transform="translate(142,108)"/>
<path d="M0 0 C0.66 0 1.32 0 2 0 C2.66 1.32 3.32 2.64 4 4 C2.35 4.66 0.7 5.32 -1 6 C-1.66 4.68 -2.32 3.36 -3 2 C-2.01 2 -1.02 2 0 2 C0 1.34 0 0.68 0 0 Z " fill="#0F0C09" transform="translate(145,84)"/>
<path d="M0 0 C1 2 1 2 0.8125 4 C0 6 0 6 -2.0625 7.25 C-3.0215625 7.62125 -3.0215625 7.62125 -4 8 C-4 4 -4 4 -2 1.75 C-1.01 0.88375 -1.01 0.88375 0 0 Z " fill="#D9C16D" transform="translate(87,141)"/>
<path d="M0 0 C0 0.99 0 1.98 0 3 C-1.63604196 4.37073786 -3.30678061 5.70055256 -5 7 C-6.76323505 9.12603185 -6.76323505 9.12603185 -8 11 C-7.875 8.25 -7.875 8.25 -7 5 C-4 2.6875 -4 2.6875 -1 1 C-0.67 0.67 -0.34 0.34 0 0 Z " fill="#EDCF5B" transform="translate(95,135)"/>
<path d="M0 0 C1.32 0.33 2.64 0.66 4 1 C0.535 3.97 0.535 3.97 -3 7 C-2.67 5.35 -2.34 3.7 -2 2 C-1.34 2 -0.68 2 0 2 C0 1.34 0 0.68 0 0 Z " fill="#DDBB65" transform="translate(116,128)"/>
<path d="M0 0 C0.33 1.32 0.66 2.64 1 4 C-0.8125 5.5625 -0.8125 5.5625 -3 7 C-3.99 6.67 -4.98 6.34 -6 6 C-4.02 4.02 -2.04 2.04 0 0 Z " fill="#DEC269" transform="translate(83,118)"/>
<path d="M0 0 C0.66 0.66 1.32 1.32 2 2 C1.01 2.33 0.02 2.66 -1 3 C-1 3.66 -1 4.32 -1 5 C-1.66 5 -2.32 5 -3 5 C-3.66 6.32 -4.32 7.64 -5 9 C-5.66 8.34 -6.32 7.68 -7 7 C-4.69 4.69 -2.38 2.38 0 0 Z " fill="#1F1003" transform="translate(143,105)"/>
<path d="M0 0 C1.9375 0.3125 1.9375 0.3125 4 1 C4.33 1.99 4.66 2.98 5 4 C2 5 2 5 -0.1875 4.0625 C-0.785625 3.711875 -1.38375 3.36125 -2 3 C-1.34 2.01 -0.68 1.02 0 0 Z " fill="#0C0203" transform="translate(153,45)"/>
<path d="M0 0 C0.33 1.32 0.66 2.64 1 4 C-1.97 6.475 -1.97 6.475 -5 9 C-4.42647107 5.12867972 -2.51295648 2.91827204 0 0 Z " fill="#291504" transform="translate(103,121)"/>
<path d="M0 0 C0.33 0.66 0.66 1.32 1 2 C0.01 3.485 0.01 3.485 -1 5 C-1.66 5 -2.32 5 -3 5 C-3 5.66 -3 6.32 -3 7 C-4.65 7.66 -6.3 8.32 -8 9 C-7.04270084 7.87411986 -6.08412105 6.7493285 -5.125 5.625 C-4.59132813 4.99851562 -4.05765625 4.37203125 -3.5078125 3.7265625 C-2.38567993 2.44163349 -1.20628025 1.20628025 0 0 Z " fill="#D9C06C" transform="translate(92,109)"/>
<path d="M0 0 C0.33 0.99 0.66 1.98 1 3 C-0.4375 5.1875 -0.4375 5.1875 -2 7 C-3.32 6.67 -4.64 6.34 -6 6 C-4.625 4.5 -4.625 4.5 -3 3 C-2.34 3 -1.68 3 -1 3 C-0.67 2.01 -0.34 1.02 0 0 Z " fill="#F6D456" transform="translate(116,87)"/>
<path d="M0 0 C2.64 0 5.28 0 8 0 C8 0.66 8 1.32 8 2 C5.69 2.33 3.38 2.66 1 3 C0.67 2.01 0.34 1.02 0 0 Z " fill="#F05A7B" transform="translate(161,76)"/>
<path d="M0 0 C0.99 0.33 1.98 0.66 3 1 C-0.465 3.97 -0.465 3.97 -4 7 C-3.6875 4.625 -3.6875 4.625 -3 2 C-2.01 1.34 -1.02 0.68 0 0 Z " fill="#D2B95C" transform="translate(122,96)"/>
<path d="M0 0 C0.33 0.99 0.66 1.98 1 3 C1.66 3 2.32 3 3 3 C3 2.01 3 1.02 3 0 C3.66 0 4.32 0 5 0 C4.67 1.65 4.34 3.3 4 5 C1.03 4.505 1.03 4.505 -2 4 C-1.34 2.68 -0.68 1.36 0 0 Z " fill="#1A0F0D" transform="translate(151,96)"/>
<path d="M0 0 C1.32 0 2.64 0 4 0 C4 0.66 4 1.32 4 2 C4.99 2.33 5.98 2.66 7 3 C7 3.66 7 4.32 7 5 C6.01 5.33 5.02 5.66 4 6 C2.68 4.02 1.36 2.04 0 0 Z " fill="#0E120E" transform="translate(157,82)"/>
<path d="M0 0 C0.66 0 1.32 0 2 0 C2.268125 0.598125 2.53625 1.19625 2.8125 1.8125 C3.98493467 3.97224808 5.19369282 5.35790256 7 7 C6.01 7.33 5.02 7.66 4 8 C1.10067643 5.60490662 0.49831724 3.68754757 0 0 Z " fill="#D55876" transform="translate(155,70)"/>
<path d="M0 0 C1.2065625 0.0309375 1.2065625 0.0309375 2.4375 0.0625 C0.79580472 2.08304804 -0.87161778 4.08293058 -2.5625 6.0625 C-2.8925 6.0625 -3.2225 6.0625 -3.5625 6.0625 C-3.605221 4.39638095 -3.60313832 2.72867115 -3.5625 1.0625 C-2.5625 0.0625 -2.5625 0.0625 0 0 Z " fill="#2D090D" transform="translate(146.5625,51.9375)"/>
<path d="M0 0 C3.16115776 1.36983503 3.9927092 1.9890638 6 5 C5.34 5.66 4.68 6.32 4 7 C3.34 6.01 2.68 5.02 2 4 C1.01 3.34 0.02 2.68 -1 2 C-0.67 1.34 -0.34 0.68 0 0 Z " fill="#DDDEC5" transform="translate(64,139)"/>
<path d="M0 0 C0.66 0 1.32 0 2 0 C2 1.65 2 3.3 2 5 C0.02 5.33 -1.96 5.66 -4 6 C-3.67 5.01 -3.34 4.02 -3 3 C-2.34 3 -1.68 3 -1 3 C-0.67 2.01 -0.34 1.02 0 0 Z " fill="#6B6C6A" transform="translate(80,112)"/>
<path d="M0 0 C0.66 0.33 1.32 0.66 2 1 C1.67 2.32 1.34 3.64 1 5 C-0.65 5 -2.3 5 -4 5 C-2.68 3.35 -1.36 1.7 0 0 Z " fill="#200E03" transform="translate(148,100)"/>
<path d="M0 0 C0.625 1.875 0.625 1.875 1 4 C0.34 4.66 -0.32 5.32 -1 6 C-3.125 5.625 -3.125 5.625 -5 5 C-3.35 3.35 -1.7 1.7 0 0 Z " fill="#DBC15C" transform="translate(128,100)"/>
<path d="M0 0 C0 2.62113708 -0.31292445 4.50935112 -1 7 C-2.65 7 -4.3 7 -6 7 C-4.02 4.69 -2.04 2.38 0 0 Z " fill="#433D38" transform="translate(131,62)"/>
<path d="M0 0 C2.31 1.98 4.62 3.96 7 6 C6.01 6.33 5.02 6.66 4 7 C4 6.34 4 5.68 4 5 C2.68 4.34 1.36 3.68 0 3 C0 2.01 0 1.02 0 0 Z " fill="#2B1B06" transform="translate(84,150)"/>
<path d="M0 0 C0.66 0.33 1.32 0.66 2 1 C1.42655063 3.86724686 1.1385485 4.8614515 -1 7 C-1 6.34 -1 5.68 -1 5 C-1.66 5 -2.32 5 -3 5 C-2.67 4.01 -2.34 3.02 -2 2 C-1.34 2 -0.68 2 0 2 C0 1.34 0 0.68 0 0 Z " fill="#5C5C5E" transform="translate(67,125)"/>
<path d="M0 0 C0.99 0.33 1.98 0.66 3 1 C3 1.99 3 2.98 3 4 C1.35 4.33 -0.3 4.66 -2 5 C-1.125 1.125 -1.125 1.125 0 0 Z " fill="#040302" transform="translate(110,84)"/>
</svg>
